<?xml version="1.0" encoding="utf-8"?>
<svg viewBox="216.535 179.624 182.93 119.153" xmlns="http://www.w3.org/2000/svg">
  <path d="M 399.465 295.687 C 392.811 297.586 388.695 295.77 385.003 289.546 L 358.741 248.753 L 354.944 243.105 L 324.275 289.682 C 320.771 295.285 317.096 297.722 310.555 295.74 L 349.828 236.552 L 313.265 183.088 C 319.553 181.716 323.898 182.414 327.756 188.737 L 354.995 230.038 L 382.434 188.962 C 385.95 183.358 389.729 181.229 396.041 183.293 L 381.864 204.396 L 362.656 232.475 C 360.369 235.683 360.683 237.88 362.788 240.978 L 399.465 295.687 Z M 216.582 235.563 L 219.793 217.823 C 228.54 182.715 264.383 168.127 289.102 189.82 C 303.547 202.579 307.137 220.627 306.423 240.843 L 224.996 240.843 C 223.774 277.234 247.103 299.196 276.844 287.992 C 287.277 284.057 293.422 274.885 296.498 263.411 C 298.059 257.661 300.642 256.761 305.456 258.405 C 302.998 272.756 297.453 284.745 285.733 292.248 C 268.224 303.478 243.23 299.846 230.083 284.238 C 222.251 275.181 219.016 263.707 217.564 251.435 C 217.335 249.406 216.878 247.475 216.535 245.531 C 216.565 242.21 216.582 238.891 216.582 235.569 L 216.582 235.563 Z M 225.144 233.125 L 298.728 233.125 C 298.247 206.811 283.653 188.12 263.708 187.962 C 241.814 187.77 226.092 206.015 225.143 233.125 L 225.144 233.125 Z" fill-rule="nonzero" style="fill: rgb(255, 250, 250);"/>
</svg>