<?xml version="1.0" encoding="utf-8"?>
<svg viewBox="197.6 26.36 256.505 254.778" xmlns="http://www.w3.org/2000/svg">
  <g transform="matrix(1, 0, 0, 1, 77.599998, 125.559555)">
    <circle style="" cx="196.8" cy="274.4" r="104.088" transform="matrix(1.176484, 0.014999, -0.042718, 1.114214, 29.790138, -270.651642)"/>
    <path d="M 248.001 -99.2 C 177.317 -99.2 120 -41.893 120 28.801 C 120 85.355 156.676 133.336 207.535 150.261 C 213.932 151.446 216.281 147.484 216.281 144.103 C 216.281 141.051 216.162 130.968 216.107 120.272 C 180.497 128.015 172.983 105.17 172.983 105.17 C 167.16 90.375 158.77 86.441 158.77 86.441 C 147.157 78.496 159.646 78.659 159.646 78.659 C 172.499 79.562 179.267 91.85 179.267 91.85 C 190.684 111.418 209.212 105.761 216.516 102.49 C 217.665 94.218 220.982 88.571 224.643 85.374 C 196.212 82.138 166.325 71.162 166.325 22.116 C 166.325 8.141 171.325 -3.278 179.513 -12.242 C 178.184 -15.466 173.803 -28.484 180.753 -46.116 C 180.753 -46.116 191.502 -49.556 215.963 -32.995 C 226.173 -35.831 237.123 -37.253 248.001 -37.302 C 258.879 -37.253 269.838 -35.831 280.067 -32.995 C 304.498 -49.556 315.232 -46.116 315.232 -46.116 C 322.199 -28.484 317.816 -15.466 316.487 -12.242 C 324.694 -3.278 329.66 8.141 329.66 22.116 C 329.66 71.279 299.716 82.104 271.213 85.273 C 275.804 89.245 279.895 97.035 279.895 108.977 C 279.895 126.103 279.747 139.887 279.747 144.103 C 279.747 147.51 282.051 151.501 288.539 150.244 C 339.37 133.3 376 85.336 376 28.801 C 376 -41.893 318.691 -99.2 248.001 -99.2 Z M 167.941 83.14 C 167.659 83.776 166.658 83.967 165.747 83.53 C 164.818 83.113 164.297 82.246 164.598 81.608 C 164.873 80.953 165.876 80.77 166.802 81.209 C 167.733 81.627 168.263 82.502 167.941 83.14 Z M 174.237 88.758 C 173.626 89.324 172.433 89.061 171.623 88.167 C 170.786 87.275 170.629 86.081 171.248 85.507 C 171.878 84.941 173.035 85.206 173.874 86.098 C 174.712 87.001 174.875 88.186 174.237 88.758 Z M 178.556 95.946 C 177.772 96.491 176.49 95.98 175.697 94.842 C 174.913 93.704 174.913 92.339 175.714 91.792 C 176.509 91.245 177.772 91.737 178.575 92.867 C 179.357 94.024 179.357 95.389 178.556 95.946 Z M 185.861 104.271 C 185.16 105.045 183.665 104.837 182.572 103.782 C 181.452 102.749 181.141 101.285 181.845 100.511 C 182.555 99.735 184.058 99.953 185.16 101.001 C 186.27 102.031 186.61 103.506 185.861 104.271 Z M 195.303 107.082 C 194.993 108.084 193.554 108.54 192.104 108.114 C 190.656 107.675 189.709 106.501 190.001 105.488 C 190.302 104.479 191.748 104.004 193.208 104.46 C 194.654 104.896 195.604 106.062 195.303 107.082 Z M 206.047 108.274 C 206.083 109.329 204.854 110.205 203.332 110.224 C 201.801 110.258 200.563 109.403 200.546 108.365 C 200.546 107.299 201.748 106.432 203.279 106.406 C 204.801 106.377 206.047 107.224 206.047 108.274 Z M 216.602 107.869 C 216.784 108.899 215.727 109.957 214.215 110.239 C 212.73 110.51 211.354 109.874 211.165 108.853 C 210.981 107.797 212.058 106.739 213.541 106.466 C 215.055 106.203 216.409 106.822 216.602 107.869 Z" style="fill: rgb(255, 255, 255);"/>
  </g>
</svg>