<?xml version="1.0" encoding="utf-8"?>
<svg viewBox="64.2 47.8 382 382" xmlns="http://www.w3.org/2000/svg">
  <rect x="84" y="71.2" width="336.8" height="333.6" style="fill: rgb(255, 255, 255);"/>
  <path style="fill:#0077B7;" d="M 411.645 47.8 L 98.755 47.8 C 79.671 47.8 64.2 63.271 64.2 82.355 L 64.2 395.244 C 64.2 414.329 79.671 429.8 98.755 429.8 L 411.644 429.8 C 430.729 429.8 446.2 414.329 446.2 395.244 L 446.2 82.355 C 446.2 63.271 430.729 47.8 411.645 47.8 Z M 182.407 377.644 C 182.407 383.198 177.905 387.7 172.351 387.7 L 129.545 387.7 C 123.991 387.7 119.489 383.198 119.489 377.644 L 119.489 198.203 C 119.489 192.649 123.991 188.147 129.545 188.147 L 172.351 188.147 C 177.905 188.147 182.407 192.649 182.407 198.203 L 182.407 377.644 Z M 150.948 171.232 C 128.489 171.232 110.282 153.025 110.282 130.566 C 110.282 108.107 128.489 89.9 150.948 89.9 C 173.407 89.9 191.614 108.107 191.614 130.566 C 191.614 153.025 173.408 171.232 150.948 171.232 Z M 406.11 378.454 C 406.11 383.56 401.97 387.7 396.864 387.7 L 350.93 387.7 C 345.824 387.7 341.684 383.56 341.684 378.454 L 341.684 294.286 C 341.684 281.73 345.367 239.265 308.871 239.265 C 280.562 239.265 274.82 268.331 273.667 281.375 L 273.667 378.454 C 273.667 383.56 269.528 387.7 264.421 387.7 L 219.995 387.7 C 214.889 387.7 210.749 383.56 210.749 378.454 L 210.749 197.393 C 210.749 192.287 214.889 188.147 219.995 188.147 L 264.421 188.147 C 269.527 188.147 273.667 192.287 273.667 197.393 L 273.667 213.048 C 284.164 197.295 299.764 185.136 332.979 185.136 C 406.531 185.136 406.11 253.852 406.11 291.608 L 406.11 378.454 L 406.11 378.454 Z"/>
</svg>